<svg version="1.2" xmlns="http://www.w3.org/2000/svg" viewBox="0 0 24 24" width="24" height="24">
	<title>add-svg</title>
	<style>
		.s0 { fill: white } 
		.s1 { fill: none;stroke: white;stroke-linecap: round;stroke-linejoin: round;stroke-width: 2 } 
	</style>
	<path class="s0" d="m15.6 4.1q-0.1 0-0.3-0.1-0.1 0-0.2-0.1-0.1 0-0.2 0-0.2 0-0.3 0l-8.5 2.3q-0.2 0.1-0.4 0.2-0.2 0.1-0.3 0.3-0.2 0.2-0.2 0.4-0.1 0.2-0.1 0.5v9.6c0 0.3-0.2 0.5-0.5 0.6l-2.2 0.8c-0.9 0.3-1.4 1.1-1.4 2q0 0.3 0.1 0.6 0 0.2 0.2 0.5 0.1 0.3 0.3 0.5 0.2 0.2 0.4 0.4 0.1 0.1 0.3 0.1 0.2 0.1 0.3 0.2 0.2 0 0.4 0.1 0.2 0 0.4 0 0.1 0 0.1 0 0.1 0 0.2 0 0.1 0 0.2-0.1 0.1 0 0.2 0l1-0.4q0.3-0.1 0.5-0.3 0.3-0.1 0.5-0.4 0.2-0.3 0.3-0.6 0.1-0.3 0.1-0.6v-9c0-0.3 0.2-0.6 0.5-0.7l7.4-2q0.1 0 0.1 0 0 0 0.1 0.1 0 0 0 0 0 0.1 0 0.1v6.1c0 0.2-0.1 0.5-0.4 0.6l-2.2 0.8q-0.3 0.1-0.6 0.3-0.3 0.2-0.5 0.4-0.2 0.3-0.3 0.6-0.1 0.3-0.1 0.7 0 0.2 0.1 0.5 0.1 0.3 0.2 0.6 0.1 0.2 0.3 0.4 0.2 0.2 0.4 0.4 0.3 0.2 0.5 0.3 0.3 0.1 0.6 0.1 0.2 0.1 0.5 0 0.3 0 0.6-0.1l0.9-0.3q0.3-0.1 0.6-0.3 0.2-0.2 0.4-0.5 0.2-0.2 0.3-0.5 0.1-0.3 0.1-0.6v-13.6q0-0.1 0-0.2-0.1-0.2-0.1-0.3-0.1-0.1-0.2-0.2 0-0.1-0.1-0.2z"/>
	<g id="Edit / Add_Plus_Circle">
		<path id="Vector" fill-rule="evenodd" class="s1" d="m19.8 8c-2.1 0-3.8-1.7-3.8-3.8 0-2 1.7-3.7 3.7-3.7 2.1 0 3.8 1.7 3.8 3.8 0 2-1.7 3.7-3.8 3.7zm0-3.8h1.7m-1.7 0v1.7m0-1.7v-1.6m-1.6 1.6h1.6"/>
	</g>
</svg>